<?xml version="1.0" encoding="UTF-8"?>
<svg id="Calque_1" xmlns="http://www.w3.org/2000/svg" version="1.1" viewBox="0 0 157.24 25.62">
  <!-- Generator: Adobe Illustrator 30.5.1, SVG Export Plug-In . SVG Version: 2.1.4 Build 3)  -->
  <defs>
    <style>
      .st0 {
        fill: #174386;
      }

      .st1 {
        fill: #e5261f;
      }
    </style>
  </defs>
  <path class="st0" d="M0,15.88c.1-2.44,1.53-5.43,4.04-7.96,3.94-3.96,9.03-5.27,11.38-2.94,1.46,1.45,1.51,3.98.4,6.63l-.07.17c-.06.14-.12.28-.19.42l-.09.18c-.69,1.36-1.67,2.74-2.92,4-3.51,3.53-7.93,4.95-10.52,3.57,3.07,2.13,8.81.43,13.31-4.09,1.06-1.07,1.97-2.2,2.7-3.36l.09-.14c2.51-4.03,2.94-8.23.73-10.43C15.99-.93,9.76.68,4.95,5.52,1.66,8.83-.12,12.79,0,15.88"/>
  <path class="st1" d="M.63,17.49c-.35-1.54.5-3.75,2.3-5.55,2.31-2.33,5.31-3.1,6.7-1.72.32.32.53.74.63,1.21l.05.36c.01.16.02.33,0,.5,0,0-.02.26-.03.31-.17,1.36-.99,2.96-2.35,4.33-2.31,2.32-5.31,3.1-6.69,1.72.08.1.16.19.25.28,2.17,2.16,6.89.92,10.54-2.75,1.18-1.19,2.11-2.49,2.75-3.78l.09-.18c.07-.14.13-.29.19-.43l.09-.22c.96-2.39.89-4.65-.43-5.95-2.17-2.16-6.89-.92-10.54,2.75C1.21,11.36-.14,15.06.63,17.49"/>
  <path class="st0" d="M27.96,17.88h-5.03l2.57-12.06c.08-.42.24-.81.47-1.18.23-.37.52-.69.84-.95.33-.27.69-.48,1.1-.64.4-.16.81-.24,1.23-.24h10.05c.42,0,.79.08,1.13.24.33.16.61.38.82.64.21.27.36.59.44.95.08.37.08.76,0,1.18l-1.09,5.03c-.08.42-.24.81-.47,1.18-.23.37-.52.69-.84.96-.33.27-.69.48-1.1.64-.4.16-.81.24-1.23.24h-7.04l.62-3.02h4.02c.28,0,.54-.1.77-.29.23-.19.39-.43.45-.71l.64-3.02c.07-.28.02-.52-.13-.71-.15-.19-.37-.29-.65-.29h-4.02c-.28,0-.54.1-.77.29-.23.19-.39.43-.45.71l-2.35,11.06Z"/>
  <path class="st0" d="M43.6,5.82c.08-.42.24-.81.47-1.18.23-.37.52-.69.84-.96.33-.27.69-.48,1.1-.64.4-.16.81-.24,1.23-.24h10.05c.42,0,.79.08,1.13.24.33.16.61.38.82.64.21.27.36.59.44.96.08.37.08.76,0,1.18l-1.93,9.05c-.09.42-.26.81-.49,1.18-.23.37-.52.69-.84.95-.33.27-.69.48-1.1.64-.4.16-.81.24-1.23.24h-10.05c-.42,0-.79-.08-1.13-.24-.33-.16-.61-.37-.82-.64-.21-.27-.36-.59-.44-.95-.08-.37-.07-.76.02-1.18l1.93-9.05ZM47.05,14.58c.15.19.37.29.65.29h4.02c.28,0,.54-.1.77-.29.23-.19.39-.43.45-.71l1.49-7.04c.07-.28.02-.52-.13-.71-.15-.19-.37-.29-.65-.29h-4.02c-.28,0-.54.1-.77.29-.23.19-.39.43-.45.71l-1.49,7.04c-.07.28-.02.52.13.71"/>
  <path class="st0" d="M65.14,14.58c.15.19.37.29.65.29h4.02c.28,0,.54-.1.77-.29.23-.19.39-.43.45-.71l2.33-11.06h5.03l-2.55,12.06c-.09.42-.26.81-.49,1.18-.23.37-.52.69-.84.95-.33.27-.69.48-1.1.64-.4.16-.81.24-1.23.24h-10.05c-.42,0-.79-.08-1.13-.24-.33-.16-.61-.37-.82-.64-.21-.27-.36-.59-.44-.95-.08-.37-.07-.76.02-1.18l2.55-12.06h5.03l-2.33,11.06c-.07.28-.02.52.13.71"/>
  <path class="st0" d="M83.23,14.58c.15.19.37.29.65.29h4.02c.28,0,.54-.1.77-.29.23-.19.39-.43.45-.71l.2-1h5.03l-.42,2.01c-.09.42-.26.81-.49,1.18-.23.37-.52.69-.84.95-.33.27-.69.48-1.1.64-.4.16-.81.24-1.23.24h-10.05c-.42,0-.79-.08-1.13-.24-.34-.16-.61-.37-.82-.64-.21-.27-.36-.59-.44-.95-.08-.37-.07-.76.02-1.18l1.93-9.05c.08-.42.24-.81.47-1.18.23-.37.52-.69.84-.96.33-.27.69-.48,1.1-.64.4-.16.81-.24,1.23-.24h10.05c.42,0,.79.08,1.13.24.33.16.61.38.82.64.21.27.36.59.44.96.08.37.08.76,0,1.18l-.44,2.01h-5.03l.22-1.01c.07-.28.02-.52-.13-.71-.15-.19-.37-.29-.65-.29h-4.02c-.28,0-.54.1-.77.29-.23.19-.39.43-.45.71l-1.49,7.04c-.07.28-.02.52.13.71"/>
  <polygon class="st0" points="107.65 11.85 101.61 11.85 100.33 17.88 95.3 17.88 98.5 2.81 103.52 2.81 102.26 8.84 108.29 8.84 109.56 2.81 114.58 2.81 111.38 17.88 106.36 17.88 107.65 11.85"/>
  <path class="st0" d="M121.36,8.84h5.03l.42-2.01c.07-.28.02-.52-.13-.71-.15-.19-.37-.29-.65-.29h-4.02c-.28,0-.54.1-.77.29-.23.19-.39.43-.45.71l-2.35,11.06h-5.03l2.57-12.06c.08-.42.24-.81.47-1.18.23-.37.52-.69.84-.96.33-.27.69-.48,1.1-.64.4-.16.81-.24,1.23-.24h10.05c.42,0,.79.08,1.13.24.33.16.61.38.82.64.21.27.36.59.44.96.08.37.08.76,0,1.18l-2.57,12.06h-5.03l1.29-6.03h-5.03l.64-3.02Z"/>
  <path class="st0" d="M141.1,5.82c.08-.42.24-.81.47-1.18.23-.37.52-.69.84-.95.33-.27.69-.48,1.1-.64.4-.16.81-.24,1.23-.24h10.05c.42,0,.79.08,1.13.24.33.16.61.38.82.64.21.27.36.59.44.95.08.37.08.76,0,1.18l-2.57,12.06h-5.03l2.35-11.06c.07-.28.02-.52-.13-.71-.15-.19-.37-.29-.65-.29h-4.02c-.28,0-.54.1-.77.29-.23.19-.39.43-.45.71l-2.35,11.06h-5.03l2.57-12.06Z"/>
  <polygon class="st0" points="134.68 2.81 139.7 2.81 136.5 17.89 131.48 17.89 134.68 2.81"/>
  <polygon class="st0" points="135.27 0 134.88 1.84 139.91 1.84 140.3 0 135.27 0"/>
  <path class="st1" d="M103.2,23.04h2.85l-.36,1.72c-.03.12-.07.23-.14.34-.07.11-.15.2-.24.27-.09.08-.2.14-.31.18-.11.05-.23.07-.35.07h-2.85c-.12,0-.22-.02-.32-.07-.09-.05-.17-.11-.23-.18-.06-.08-.1-.17-.12-.27-.02-.1-.02-.22,0-.34l.55-2.58c.02-.12.07-.23.13-.34.07-.1.15-.2.24-.27.09-.08.2-.14.31-.18.11-.05.23-.07.35-.07h3.7l-.18.86h-2.85c-.08,0-.15.03-.22.08-.07.06-.11.12-.13.2l-.42,2.01c-.02.08,0,.15.04.2.04.06.11.08.18.08h1.14c.08,0,.15-.03.22-.08.07-.06.11-.12.13-.2l.12-.57h-1.42l.18-.86Z"/>
  <path class="st1" d="M107.2,21.32h3.7c.12,0,.22.02.32.07.09.05.17.11.23.18.06.08.1.17.12.27.02.1.02.22,0,.34l-.14.64c-.03.13-.08.25-.16.36-.07.11-.16.21-.27.29.07.08.12.17.15.28.03.11.03.23,0,.36l-.32,1.51h-1.42l.3-1.43c.02-.08,0-.15-.04-.2-.04-.06-.11-.08-.18-.08h-1.15l.18-.86h1.14c.08,0,.15-.03.22-.08.06-.06.11-.12.12-.2l.06-.29c.02-.08,0-.15-.04-.2-.04-.06-.11-.08-.18-.08h-1.42l-.73,3.44h-1.42l.91-4.3Z"/>
  <path class="st1" d="M113.35,24.68c.04.06.1.08.18.08h1.14c.08,0,.15-.03.22-.08.07-.05.11-.12.13-.2l.42-2.01c.02-.08,0-.15-.04-.2-.04-.06-.11-.08-.18-.08h-1.14c-.08,0-.15.03-.22.08-.07.06-.11.12-.13.2l-.42,2.01c-.02.08,0,.15.04.2M112.37,22.18c.02-.12.07-.23.13-.34.07-.11.15-.2.24-.27.09-.08.2-.14.31-.18.11-.05.23-.07.35-.07h2.85c.12,0,.22.02.32.07.09.05.17.11.23.18.06.08.1.17.13.27.02.11.02.22,0,.34l-.55,2.58c-.03.12-.07.23-.14.34-.07.11-.15.2-.24.27-.09.08-.2.14-.31.18-.11.05-.23.07-.35.07h-2.85c-.12,0-.22-.02-.32-.07-.09-.05-.17-.11-.23-.18-.06-.08-.1-.17-.12-.27-.02-.11-.02-.22,0-.34l.55-2.58Z"/>
  <path class="st1" d="M118.7,24.68c.04.06.11.08.18.08h1.14c.08,0,.15-.03.22-.08.07-.06.11-.12.13-.2l.66-3.16h1.42l-.72,3.44c-.03.12-.07.23-.14.34-.07.11-.15.2-.24.27-.09.08-.2.14-.31.18-.11.05-.23.07-.35.07h-2.85c-.12,0-.22-.02-.32-.07-.1-.05-.17-.11-.23-.18-.06-.08-.1-.17-.13-.27-.02-.1-.02-.22,0-.34l.72-3.44h1.42l-.66,3.16c-.02.08,0,.15.04.2"/>
  <path class="st1" d="M123.77,25.62h-1.42l.73-3.44c.02-.12.07-.23.13-.34.07-.11.15-.2.24-.27.09-.08.2-.14.31-.18.11-.05.23-.07.35-.07h2.85c.12,0,.22.02.32.07.09.05.17.11.23.18.06.08.1.17.13.27.02.11.02.22,0,.34l-.31,1.43c-.02.12-.07.23-.13.34-.07.11-.15.2-.24.27-.09.08-.2.14-.31.18-.11.05-.23.07-.35.07h-1.99l.18-.86h1.14c.08,0,.15-.03.22-.08.07-.06.11-.12.13-.2l.18-.86c.02-.08,0-.15-.04-.2-.04-.06-.11-.08-.18-.08h-1.14c-.08,0-.15.03-.22.08-.07.06-.11.12-.13.2l-.67,3.16Z"/>
  <path class="st1" d="M129.76,23.9l.18-.86h2.85l-.18.86h-2.85ZM129.36,24.47c-.02.08,0,.15.04.2.04.06.1.08.18.08h2.85l-.18.86h-3.7c-.12,0-.22-.02-.32-.07-.1-.05-.17-.11-.23-.18-.06-.08-.1-.17-.13-.27-.02-.1-.02-.22,0-.34l.55-2.58c.02-.12.07-.23.13-.34.07-.1.15-.2.24-.27.09-.08.2-.14.31-.18.11-.05.23-.07.35-.07h3.7l-.18.86h-2.85c-.08,0-.15.03-.22.08-.07.06-.11.12-.13.2l-.3,1.43-.12.57Z"/>
  <path class="st1" d="M137.53,23.9l.18-.86h2.85l-.18.86h-2.85ZM137.14,24.47c-.02.08,0,.15.04.2.04.06.1.08.18.08h2.85l-.18.86h-3.7c-.12,0-.22-.02-.32-.07-.09-.05-.17-.11-.23-.18-.06-.08-.1-.17-.13-.27-.02-.1-.02-.22,0-.34l.55-2.58c.02-.12.07-.23.13-.34.07-.1.15-.2.24-.27.09-.08.2-.14.31-.18.11-.05.23-.07.35-.07h3.7l-.18.86h-2.85c-.08,0-.15.03-.22.08-.07.06-.11.12-.13.2l-.3,1.43-.12.57Z"/>
  <path class="st1" d="M146.83,22.47c.02-.08,0-.15-.04-.2-.04-.06-.11-.08-.18-.08h-1.14c-.08,0-.15.03-.22.08-.07.06-.11.12-.13.2l-.67,3.16h-1.42l.73-3.44c.02-.12.07-.23.13-.34.07-.11.15-.2.24-.27.09-.08.2-.14.31-.18.11-.05.23-.07.35-.07h2.49c.09,0,.18.01.26.04.08.03.15.07.2.12.08-.05.17-.09.26-.12.09-.03.18-.04.28-.04h2.49c.12,0,.22.02.32.07.09.05.17.11.23.18.06.08.1.17.12.27.02.1.02.22,0,.34l-.73,3.44h-1.42l.67-3.16c.02-.08,0-.15-.04-.2-.04-.06-.11-.08-.19-.08h-1.14c-.08,0-.15.03-.22.08-.07.06-.11.12-.13.2l-.67,3.16h-1.42l.67-3.16Z"/>
  <polygon class="st1" points="141.73 21.32 143.16 21.32 142.25 25.62 140.82 25.62 141.73 21.32"/>
  <polygon class="st1" points="141.9 20.51 141.79 21.04 143.22 21.04 143.33 20.51 141.9 20.51"/>
  <polygon class="st1" points="152.42 21.32 153.86 21.32 152.95 25.62 151.51 25.62 152.42 21.32"/>
  <polygon class="st1" points="152.59 20.51 152.48 21.04 153.92 21.04 154.03 20.51 152.59 20.51"/>
</svg>